<svg width="50" height="50" viewBox="0 0 50 50" fill="none" xmlns="http://www.w3.org/2000/svg">
<path fill-rule="evenodd" clip-rule="evenodd" d="M25 2.5C12.5736 2.5 2.5 12.5736 2.5 25C2.5 37.4264 12.5736 47.5 25 47.5C37.4264 47.5 47.5 37.4264 47.5 25C47.5 24.3096 48.0596 23.75 48.75 23.75C49.4404 23.75 50 24.3096 50 25C50 38.8071 38.8071 50 25 50C11.1929 50 0 38.8071 0 25C0 11.1929 11.1929 0 25 0C25.6904 0 26.25 0.559644 26.25 1.25C26.25 1.94036 25.6904 2.5 25 2.5ZM10 25C10 16.7157 16.7157 10 25 10C25.6904 10 26.25 9.44036 26.25 8.75C26.25 8.05964 25.6904 7.5 25 7.5C15.335 7.5 7.5 15.335 7.5 25C7.5 34.665 15.335 42.5 25 42.5C34.665 42.5 42.5 34.665 42.5 25C42.5 24.3096 41.9404 23.75 41.25 23.75C40.5596 23.75 40 24.3096 40 25C40 33.2843 33.2843 40 25 40C16.7157 40 10 33.2843 10 25ZM17.5 25C17.5 20.8579 20.8579 17.5 25 17.5C25.6904 17.5 26.25 16.9404 26.25 16.25C26.25 15.5596 25.6904 15 25 15C19.4772 15 15 19.4772 15 25C15 30.5228 19.4772 35 25 35C30.5228 35 35 30.5228 35 25C35 24.3096 34.4404 23.75 33.75 23.75C33.0596 23.75 32.5 24.3096 32.5 25C32.5 29.1421 29.1421 32.5 25 32.5C20.8579 32.5 17.5 29.1421 17.5 25ZM42.5 3.75C42.5 3.24442 42.1954 2.78863 41.7284 2.59515C41.2613 2.40167 40.7236 2.50862 40.3661 2.86612L32.8661 10.3661C32.6317 10.6005 32.5 10.9185 32.5 11.25V15.7322L24.1161 24.1161C23.628 24.6043 23.628 25.3957 24.1161 25.8839C24.6043 26.372 25.3957 26.372 25.8839 25.8839L34.2678 17.5H38.75C39.0815 17.5 39.3995 17.3683 39.6339 17.1339L47.1339 9.63388C47.4914 9.27639 47.5983 8.73874 47.4049 8.27165C47.2114 7.80455 46.7556 7.5 46.25 7.5H42.5V3.75Z" fill="#2C2C2C"/>
</svg>
