<svg width="50" height="50" viewBox="0 0 50 50" fill="none" xmlns="http://www.w3.org/2000/svg">
<path fill-rule="evenodd" clip-rule="evenodd" d="M2.5 25C2.5 12.5736 12.5736 2.5 25 2.5C25.6904 2.5 26.25 1.94036 26.25 1.25C26.25 0.559644 25.6904 0 25 0C11.1929 0 0 11.1929 0 25C0 38.8071 11.1929 50 25 50C38.8071 50 50 38.8071 50 25C50 24.3096 49.4404 23.75 48.75 23.75C48.0596 23.75 47.5 24.3096 47.5 25C47.5 37.4264 37.4264 47.5 25 47.5C12.5736 47.5 2.5 37.4264 2.5 25ZM33.8509 6.22429C33.4312 6.60609 33.0956 7.06035 32.8629 7.56163C32.6216 8.08332 32.4983 8.63731 32.5 9.20746C32.5 9.7453 32.6181 10.3058 32.8525 10.8759C33.047 11.3524 33.33 11.8466 33.6894 12.3457C34.2589 13.1355 35.042 13.9592 36.0143 14.7942C37.6273 16.1784 39.2213 17.133 39.289 17.1733L39.7005 17.4188C39.8828 17.5271 40.1172 17.5271 40.2995 17.4188L40.711 17.1733C40.7787 17.1346 42.3744 16.1784 43.9857 14.7942C44.958 13.9592 45.7411 13.1355 46.3106 12.3457C46.67 11.8466 46.9513 11.3524 47.1475 10.8759C47.3819 10.3058 47.5 9.7453 47.5 9.20746C47.5 8.63731 47.3767 8.08332 47.1354 7.56163C46.9033 7.06002 46.5676 6.60566 46.1474 6.22429C45.7255 5.83989 45.2341 5.53785 44.6889 5.32789C44.1246 5.10984 43.5273 5.00001 42.9109 5.00001C42.0549 5.00001 41.2198 5.21806 40.494 5.62992C40.3204 5.72844 40.1554 5.83666 39.9991 5.95456C39.8429 5.83666 39.6779 5.72844 39.5043 5.62992C38.7785 5.21806 37.9433 5.00001 37.0873 5.00001C36.4772 4.99871 35.8728 5.11015 35.3094 5.32789C34.766 5.53703 34.2708 5.84135 33.8509 6.22429ZM17.5 25C17.5 20.8579 20.8579 17.5 25 17.5C25.6904 17.5 26.25 16.9404 26.25 16.25C26.25 15.5596 25.6904 15 25 15C19.4772 15 15 19.4772 15 25C15 30.5228 19.4772 35 25 35C30.5228 35 35 30.5228 35 25C35 24.3096 34.4404 23.75 33.75 23.75C33.0596 23.75 32.5 24.3096 32.5 25C32.5 29.1421 29.1421 32.5 25 32.5C20.8579 32.5 17.5 29.1421 17.5 25ZM25 10C16.7157 10 10 16.7157 10 25C10 33.2843 16.7157 40 25 40C33.2843 40 40 33.2843 40 25C40 24.3096 40.5596 23.75 41.25 23.75C41.9404 23.75 42.5 24.3096 42.5 25C42.5 34.665 34.665 42.5 25 42.5C15.335 42.5 7.5 34.665 7.5 25C7.5 15.335 15.335 7.5 25 7.5C25.6904 7.5 26.25 8.05964 26.25 8.75C26.25 9.44036 25.6904 10 25 10Z" fill="#2C2C2C"/>
</svg>
