<svg width="50" height="50" viewBox="0 0 50 50" fill="none" xmlns="http://www.w3.org/2000/svg">
<path fill-rule="evenodd" clip-rule="evenodd" d="M25 2.5C12.5736 2.5 2.5 12.5736 2.5 25C2.5 37.4264 12.5736 47.5 25 47.5C37.4264 47.5 47.5 37.4264 47.5 25C47.5 24.3096 48.0596 23.75 48.75 23.75C49.4404 23.75 50 24.3096 50 25C50 38.8071 38.8071 50 25 50C11.1929 50 0 38.8071 0 25C0 11.1929 11.1929 0 25 0C25.6904 0 26.25 0.559644 26.25 1.25C26.25 1.94036 25.6904 2.5 25 2.5ZM10 25C10 16.7157 16.7157 10 25 10C25.6904 10 26.25 9.44036 26.25 8.75C26.25 8.05964 25.6904 7.5 25 7.5C15.335 7.5 7.5 15.335 7.5 25C7.5 34.665 15.335 42.5 25 42.5C34.665 42.5 42.5 34.665 42.5 25C42.5 24.3096 41.9404 23.75 41.25 23.75C40.5596 23.75 40 24.3096 40 25C40 33.2843 33.2843 40 25 40C16.7157 40 10 33.2843 10 25ZM17.5 25C17.5 20.8579 20.8579 17.5 25 17.5C25.6904 17.5 26.25 16.9404 26.25 16.25C26.25 15.5596 25.6904 15 25 15C19.4772 15 15 19.4772 15 25C15 30.5228 19.4772 35 25 35C30.5228 35 35 30.5228 35 25C35 24.3096 34.4404 23.75 33.75 23.75C33.0596 23.75 32.5 24.3096 32.5 25C32.5 29.1421 29.1421 32.5 25 32.5C20.8579 32.5 17.5 29.1421 17.5 25ZM32.5 3.75C32.0588 3.75 31.6503 3.98256 31.4251 4.36192C31.1999 4.74128 31.1914 5.21126 31.4026 5.59857L38.9026 19.3486C39.1217 19.7501 39.5426 20 40 20C40.4574 20 40.8783 19.7501 41.0974 19.3486L48.5974 5.59857C48.8086 5.21126 48.8001 4.74128 48.5749 4.36192C48.3497 3.98256 47.9412 3.75 47.5 3.75H32.5Z" fill="#2C2C2C"/>
</svg>
