<svg width="24" height="24" viewBox="0 0 24 24" fill="none" xmlns="http://www.w3.org/2000/svg">
<path d="M17 4.44955C17 4.33172 16.9521 4.21871 16.8669 4.13539C16.7816 4.05206 16.666 4.00525 16.5455 4.00525H14.2727C13.1283 3.94953 12.0078 4.33883 11.1561 5.08808C10.3044 5.83734 9.79071 6.88564 9.72727 8.00394V10.4032H7.45455C7.33399 10.4032 7.21838 10.45 7.13313 10.5333C7.04789 10.6166 7 10.7296 7 10.8475V13.1578C7 13.2756 7.04789 13.3886 7.13313 13.472C7.21838 13.5553 7.33399 13.6021 7.45455 13.6021H9.72727V19.5557C9.72727 19.6735 9.77516 19.7865 9.86041 19.8699C9.94565 19.9532 10.0613 20 10.1818 20H12.9091C13.0296 20 13.1453 19.9532 13.2305 19.8699C13.3157 19.7865 13.3636 19.6735 13.3636 19.5557V13.6021H15.7455C15.8465 13.6035 15.9452 13.572 16.0259 13.5124C16.1066 13.4529 16.1646 13.3687 16.1909 13.2733L16.8455 10.963C16.8635 10.8973 16.866 10.8285 16.8526 10.7618C16.8392 10.6951 16.8103 10.6323 16.7681 10.5782C16.726 10.5241 16.6717 10.4802 16.6094 10.4499C16.5472 10.4195 16.4786 10.4035 16.4091 10.4032H13.3636V8.00394C13.3862 7.78399 13.4919 7.58018 13.66 7.4323C13.8281 7.28442 14.0466 7.2031 14.2727 7.2042H16.5455C16.666 7.2042 16.7816 7.15739 16.8669 7.07407C16.9521 6.99075 17 6.87774 17 6.7599V4.44955Z" fill="#FCFCFC"/>
</svg>
