<svg width="14" height="14" viewBox="0 0 14 14" fill="none" xmlns="http://www.w3.org/2000/svg">
<g clip-path="url(#clip0_744_10)">
<path d="M10.89 0.707879C10.89 0.609683 10.8501 0.515509 10.779 0.446074C10.708 0.376639 10.6116 0.33763 10.5112 0.33763H8.61725C7.66355 0.291194 6.72982 0.615607 6.02007 1.23999C5.31031 1.86436 4.88224 2.73795 4.82937 3.66987V5.66921H2.93543C2.83497 5.66921 2.73862 5.70822 2.66759 5.77766C2.59655 5.84709 2.55664 5.94126 2.55664 6.03946V7.96475C2.55664 8.06295 2.59655 8.15712 2.66759 8.22656C2.73862 8.29599 2.83497 8.335 2.93543 8.335H4.82937V13.2963C4.82937 13.3945 4.86928 13.4887 4.94031 13.5581C5.01135 13.6276 5.10769 13.6666 5.20816 13.6666H7.48088C7.58134 13.6666 7.67769 13.6276 7.74873 13.5581C7.81976 13.4887 7.85967 13.3945 7.85967 13.2963V8.335H9.84452C9.92875 8.33619 10.011 8.30989 10.0782 8.26027C10.1454 8.21065 10.1938 8.14053 10.2157 8.06102L10.7612 6.13573C10.7763 6.08102 10.7783 6.02366 10.7671 5.96807C10.7559 5.91248 10.7319 5.86013 10.6967 5.81507C10.6616 5.77 10.6164 5.73342 10.5645 5.70813C10.5126 5.68284 10.4555 5.66953 10.3975 5.66921H7.85967V3.66987C7.87851 3.48658 7.96658 3.31673 8.10666 3.1935C8.24674 3.07027 8.42879 3.0025 8.61725 3.00342H10.5112C10.6116 3.00342 10.708 2.96441 10.779 2.89498C10.8501 2.82554 10.89 2.73137 10.89 2.63317V0.707879Z" fill="black"/>
</g>
<defs>
<clipPath id="clip0_744_10">
<rect width="13.3333" height="13.3333" fill="white" transform="translate(0.333984 0.333252)"/>
</clipPath>
</defs>
</svg>
