<svg width="14" height="14" viewBox="0 0 14 14" fill="none" xmlns="http://www.w3.org/2000/svg">
<path d="M6.99886 4.77667C5.77472 4.77667 4.77573 5.77566 4.77573 6.99979C4.77573 8.22393 5.77472 9.22292 6.99886 9.22292C8.223 9.22292 9.22199 8.22393 9.22199 6.99979C9.22199 5.77566 8.223 4.77667 6.99886 4.77667ZM13.6666 6.99979C13.6666 6.07919 13.6749 5.16692 13.6232 4.24799C13.5715 3.18062 13.328 2.23333 12.5475 1.45282C11.7653 0.670636 10.8197 0.42881 9.75233 0.37711C8.83173 0.325409 7.91946 0.333748 7.00053 0.333748C6.07992 0.333748 5.16766 0.325409 4.24872 0.37711C3.18135 0.42881 2.23406 0.672304 1.45355 1.45282C0.671368 2.235 0.429543 3.18062 0.377842 4.24799C0.326142 5.16859 0.33448 6.08086 0.33448 6.99979C0.33448 7.91873 0.326142 8.83267 0.377842 9.7516C0.429543 10.819 0.673036 11.7663 1.45355 12.5468C2.23573 13.329 3.18135 13.5708 4.24872 13.6225C5.16932 13.6742 6.08159 13.6658 7.00053 13.6658C7.92113 13.6658 8.8334 13.6742 9.75233 13.6225C10.8197 13.5708 11.767 13.3273 12.5475 12.5468C13.3297 11.7646 13.5715 10.819 13.6232 9.7516C13.6766 8.83267 13.6666 7.9204 13.6666 6.99979V6.99979ZM6.99886 10.4204C5.10595 10.4204 3.57828 8.89271 3.57828 6.99979C3.57828 5.10688 5.10595 3.57921 6.99886 3.57921C8.89177 3.57921 10.4194 5.10688 10.4194 6.99979C10.4194 8.89271 8.89177 10.4204 6.99886 10.4204ZM10.5595 4.23798C10.1176 4.23798 9.76067 3.88108 9.76067 3.43912C9.76067 2.99716 10.1176 2.64026 10.5595 2.64026C11.0015 2.64026 11.3584 2.99716 11.3584 3.43912C11.3585 3.54407 11.3379 3.64801 11.2978 3.74499C11.2577 3.84197 11.1989 3.93009 11.1247 4.00429C11.0505 4.0785 10.9624 4.13734 10.8654 4.17744C10.7684 4.21754 10.6645 4.23811 10.5595 4.23798V4.23798Z" fill="black"/>
</svg>
