<svg width="14" height="14" viewBox="0 0 14 14" fill="none" xmlns="http://www.w3.org/2000/svg">
<g clip-path="url(#clip0_744_5)">
<path fill-rule="evenodd" clip-rule="evenodd" d="M2.55889 13.3937C2.12117 13.2126 1.72354 12.9469 1.38884 12.6117C0.713338 11.9346 0.333984 11.0173 0.333984 10.0609C0.333984 9.10446 0.713338 8.1871 1.38884 7.51L3.43006 5.46959L4.45032 6.4898L2.40909 8.53021C2.00395 8.93661 1.77645 9.48704 1.77645 10.0609C1.77645 10.6347 2.00395 11.1851 2.40909 11.5915C2.8157 11.9963 3.36608 12.2236 3.93983 12.2236C4.51357 12.2236 5.06396 11.9963 5.47057 11.5915L7.51107 9.55041L8.53133 10.5706L6.49082 12.6117C6.15596 12.9469 5.7582 13.2126 5.32036 13.3936C4.88253 13.5747 4.41325 13.6674 3.93947 13.6666C3.46579 13.6674 2.99661 13.5747 2.55889 13.3937ZM13.6673 3.93893C13.6673 4.89522 13.2882 5.81251 12.6131 6.4898L10.5718 8.53021L9.55158 7.51L11.5928 5.46959C11.9979 5.06319 12.2254 4.51276 12.2254 3.93893C12.2254 3.36509 11.9979 2.81466 11.5928 2.40826C11.1862 2.00349 10.6358 1.77624 10.0621 1.77624C9.48832 1.77624 8.93794 2.00349 8.53133 2.40826L6.49082 4.44939L5.47057 3.42918L7.51107 1.38805C8.18821 0.712588 9.10561 0.333252 10.0621 0.333252C11.0185 0.333252 11.9359 0.712588 12.6131 1.38805C13.2882 2.06534 13.6673 2.98263 13.6673 3.93893ZM3.4287 9.55119L4.44967 10.5714L10.5726 4.44945L9.55238 3.42853L3.4287 9.55119Z" fill="black"/>
</g>
<defs>
<clipPath id="clip0_744_5">
<rect width="13.3333" height="13.3333" fill="white" transform="translate(0.333984 0.333252)"/>
</clipPath>
</defs>
</svg>
