<?xml version="1.0" encoding="UTF-8"?> <!-- Generator: Adobe Illustrator 21.1.0, SVG Export Plug-In . SVG Version: 6.00 Build 0) --> <svg xmlns="http://www.w3.org/2000/svg" xmlns:xlink="http://www.w3.org/1999/xlink" id="Layer_1" x="0px" y="0px" width="120px" height="30px" viewBox="0 0 120 30" style="enable-background:new 0 0 120 30;" xml:space="preserve"> <style type="text/css"> .st0{fill:#51B09A;} </style> <g> <path class="st0" d="M66.6,18.1L57.2,6.3c-1.2-1.4-2.9-2.3-4.7-2.3h0h-9.3v11.1c0,3.5-2.5,6.5-5.9,6.5c-3.5,0-6-2.9-6-6.5V4.1h-9.3 h0C20.3,4.1,19,5.4,19,7v11.1L8.9,5.4C8.2,4.6,7.1,4.1,6,4.1h0c-2,0-3.7,1.6-3.7,3.7v16.2c0,1.5,1.2,2.7,2.7,2.7h0 c1.5,0,2.7-1.2,2.7-2.7V13.1l10.4,12.5c0.5,0.6,1.3,1,2.1,1h1.4c1.5,0,2.7-1.2,2.7-2.7V9.5h1.3v5.6c0,7.2,5.1,12.1,11.5,12.1 c6.4,0,11.4-4.8,11.4-12.1V9.5h1.3v14.4c0,1.5,1.2,2.7,2.7,2.7h0c1.5,0,2.7-1.2,2.7-2.7V13.1l10.4,12.5c0.5,0.6,1.3,1,2.1,1h1.4 c1.5,0,2.7-1.2,2.7-2.7V6.8c0-1.5-1.2-2.7-2.7-2.7h0c-1.5,0-2.7,1.2-2.7,2.7V18.1z"></path> <path class="st0" d="M85.6,3.5c-6.9-0.4-12.5,5.1-12.5,11.9c0,6.6,5.3,11.9,11.9,11.9c6.8,0,12.3-5.8,11.8-12.7 C96.4,8.6,91.5,3.8,85.6,3.5z M85.2,22c-3.8,0.1-6.9-2.9-6.9-6.7c0-3.7,3-6.7,6.7-6.7c3.8,0,6.9,3.3,6.6,7.2 C91.4,19.2,88.6,21.9,85.2,22z"></path> <path class="st0" d="M117.9,5L117.9,5c-1.2-1.2-3.2-1.2-4.4,0l-5.8,5.9l-6-5.9c-1.2-1.2-3.1-1.2-4.3,0l0,0c-1.2,1.2-1.2,3.2,0,4.4 l6,5.9l-6,6c-1.2,1.2-1.2,3.1,0,4.3l0,0c1.2,1.2,3.1,1.2,4.3,0l6-5.9l5.8,5.9c1.2,1.2,3.2,1.2,4.4,0l0,0c1.2-1.2,1.2-3.1,0-4.3 l-5.9-6l5.9-6C119.1,8.1,119.1,6.2,117.9,5z"></path> </g> </svg> 