<svg width="15" height="15" viewBox="0 0 15 15" fill="none" xmlns="http://www.w3.org/2000/svg">
<path d="M6.68 14.56H7.88L7.56 8.8L9.52 14.24L10.6 13.8L8.12 8.56L12 12.88L12.84 12L8.56 8.16L13.76 10.64L14.24 9.52L8.76 7.6L14.56 7.88V6.68L8.76 7L14.24 5.04L13.76 3.96L8.56 6.44L12.84 2.56L12 1.72L8.12 6L10.6 0.799999L9.52 0.32L7.56 5.76L7.88 0H6.68L6.96 5.8L5.04 0.32L3.92 0.799999L6.4 6L2.56 1.72L1.68 2.56L6 6.44L0.76 3.96L0.32 5.04L5.76 7L0 6.68V7.88L5.76 7.6L0.32 9.52L0.76 10.64L6 8.16L1.68 12L2.56 12.88L6.4 8.56L3.92 13.8L5.04 14.24L6.96 8.8L6.68 14.56Z" fill="#F2F2F2"/>
</svg>
